<?xml version="1.0" encoding="UTF-8"?>
<!-- Generator: Adobe Illustrator 19.2.1, SVG Export Plug-In . SVG Version: 6.00 Build 0)  -->
<svg version="1.1" id="Слой_1" xmlns="http://www.w3.org/2000/svg" xmlns:xlink="http://www.w3.org/1999/xlink" x="0px" y="0px" viewBox="0 0 23.4 24.7" style="enable-background:new 0 0 23.4 24.7;" xml:space="preserve">
<style type="text/css">
	.st0{fill:#52C306;}
	.st1{fill:#388F04;}
	.st2{fill:#399137;}
	.st3{fill:none;stroke:#399137;stroke-miterlimit:10;}
	.st4{fill:#00922a;stroke:#00922a;stroke-width:0.3;stroke-miterlimit:10;}
	.st5{fill:#EE3840;}
	.st6{fill:#FFE1D6;}
	.st7{fill:#5DA35B;}
	.st8{fill:#FFFFFF;}
	.st9{fill:none;stroke:#5DA35B;stroke-width:3;stroke-miterlimit:10;}
	.st10{fill:none;}
	.st11{fill:#4FBA6F;}
	.st12{fill:#48A0DC;}
	.st13{fill:#556080;}
	.st14{fill:#E2E2E2;}
	.st15{fill:#399137;stroke:#FFFFFF;stroke-miterlimit:10;}
	.st16{fill:#ED0F0F;stroke:#FFFFFF;stroke-width:0.7;stroke-miterlimit:10;}
	.st17{fill:none;stroke:#FFFFFF;stroke-miterlimit:10;}
</style>
<g>
	<path class="st4" d="M23.3,18c0-0.2-0.2-0.3-0.4-0.3l-3.5-0.5l-1.6-3c-0.2-0.3-0.6-0.3-0.8,0l-1.6,3l-3.5,0.5   c-0.2,0-0.3,0.1-0.4,0.3c-0.1,0.2,0,0.3,0.1,0.5l2.5,2.4l-0.6,3.3c0,0.2,0,0.3,0.2,0.4c0.1,0.1,0.3,0.1,0.5,0l3.1-1.6l3.1,1.6   c0.1,0,0.1,0,0.2,0c0.1,0,0.2,0,0.3-0.1c0.1-0.1,0.2-0.3,0.2-0.4l-0.6-3.3l2.5-2.4C23.3,18.4,23.4,18.2,23.3,18L23.3,18z    M19.9,20.4c-0.1,0.1-0.2,0.3-0.1,0.4l0.5,2.7l-2.5-1.3c-0.1,0-0.1,0-0.2,0c-0.1,0-0.1,0-0.2,0l-2.5,1.3l0.5-2.7   c0-0.1,0-0.3-0.1-0.4l-2-1.9l2.8-0.4c0.1,0,0.3-0.1,0.3-0.2l1.3-2.5l1.3,2.5c0.1,0.1,0.2,0.2,0.3,0.2l2.8,0.4L19.9,20.4z    M19.9,20.4"/>
	<path class="st4" d="M8.9,5.4c-1.7,0-3.1,1.4-3.1,3.1c0,1.7,1.4,3.1,3.1,3.1c1.7,0,3.1-1.4,3.1-3.1C12,6.8,10.6,5.4,8.9,5.4   L8.9,5.4z M8.9,10.8c-1.2,0-2.2-1-2.2-2.2c0-1.2,1-2.2,2.2-2.2c1.2,0,2.2,1,2.2,2.2C11.1,9.8,10.1,10.8,8.9,10.8L8.9,10.8z    M8.9,10.8"/>
	<path class="st4" d="M10,21.3L8.6,23l-6.2-8.9C0.1,11,0.4,5.9,3.2,3.2c1.5-1.5,3.4-2.3,5.5-2.3c2.1,0,4,0.8,5.5,2.3   c2,2,2.8,5.4,1.9,8.4c-0.1,0.2,0.1,0.5,0.3,0.6c0.2,0.1,0.5-0.1,0.6-0.3c0.9-3.3,0.1-7.1-2.2-9.3C13.1,0.9,10.9,0,8.6,0   C6.3,0,4.2,0.9,2.5,2.5c-3,3-3.4,8.7-0.8,12.1l6.9,9.9l2.1-2.7c0.2-0.2,0.1-0.5-0.1-0.6C10.4,21.1,10.1,21.1,10,21.3L10,21.3z    M10,21.3"/>
</g>
</svg>