<?xml version="1.0" encoding="UTF-8"?>
<!-- Generator: Adobe Illustrator 19.2.1, SVG Export Plug-In . SVG Version: 6.00 Build 0)  -->
<svg version="1.1" id="Слой_1" xmlns="http://www.w3.org/2000/svg" xmlns:xlink="http://www.w3.org/1999/xlink" x="0px" y="0px" viewBox="0 0 24.4 24.4" style="enable-background:new 0 0 24.4 24.4;" xml:space="preserve">
<style type="text/css">
	.st0{fill:#52C306;}
	.st1{fill:#388F04;}
	.st2{fill:#399137;}
	.st3{fill:none;stroke:#399137;stroke-miterlimit:10;}
	.st4{fill:#399137;stroke:#399137;stroke-width:0.3;stroke-miterlimit:10;}
	.st5{fill:#EE3840;}
	.st6{fill:#FFE1D6;}
	.st7{fill:#00922a;}
	.st8{fill:#FFFFFF;}
	.st9{fill:none;stroke:#5DA35B;stroke-width:3;stroke-miterlimit:10;}
	.st10{fill:none;}
	.st11{fill:#4FBA6F;}
	.st12{fill:#48A0DC;}
	.st13{fill:#556080;}
	.st14{fill:#E2E2E2;}
	.st15{fill:#399137;stroke:#FFFFFF;stroke-miterlimit:10;}
	.st16{fill:#ED0F0F;stroke:#FFFFFF;stroke-width:0.7;stroke-miterlimit:10;}
	.st17{fill:none;stroke:#FFFFFF;stroke-miterlimit:10;}
</style>
<g>
	<g>
		<path class="st7" d="M12.2,24.4C5.5,24.4,0,18.9,0,12.2S5.5,0,12.2,0s12.2,5.5,12.2,12.2S18.9,24.4,12.2,24.4z M12.2,1.4    c-6,0-10.8,4.8-10.8,10.8c0,6,4.8,10.8,10.8,10.8c6,0,10.8-4.8,10.8-10.8C23,6.2,18.1,1.4,12.2,1.4z"/>
	</g>
	<g>
		<g>
			<path class="st7" d="M16.3,18.2H8.3v-1.4l3.9-4.3c0.6-0.6,1-1.2,1.2-1.6c0.2-0.4,0.4-0.9,0.4-1.3c0-0.6-0.2-1-0.5-1.4     c-0.3-0.3-0.7-0.5-1.3-0.5c-0.6,0-1.1,0.2-1.5,0.6c-0.4,0.4-0.5,0.9-0.5,1.6h-2c0-0.7,0.2-1.4,0.5-1.9S9.4,7,10,6.7     c0.6-0.3,1.3-0.5,2.1-0.5c1.1,0,2.1,0.3,2.7,0.9s1,1.4,1,2.4c0,0.6-0.2,1.2-0.5,1.9c-0.3,0.6-0.9,1.4-1.6,2.2l-2.9,3.1h5.5V18.2z     "/>
		</g>
	</g>
</g>
</svg>