<?xml version="1.0" encoding="UTF-8"?>
<!-- Generator: Adobe Illustrator 19.2.1, SVG Export Plug-In . SVG Version: 6.00 Build 0)  -->
<svg version="1.1" id="Слой_1" xmlns="http://www.w3.org/2000/svg" xmlns:xlink="http://www.w3.org/1999/xlink" x="0px" y="0px" viewBox="0 0 24.4 24.4" style="enable-background:new 0 0 24.4 24.4;" xml:space="preserve">
<style type="text/css">
	.st0{fill:#52C306;}
	.st1{fill:#388F04;}
	.st2{fill:#399137;}
	.st3{fill:none;stroke:#399137;stroke-miterlimit:10;}
	.st4{fill:#399137;stroke:#399137;stroke-width:0.3;stroke-miterlimit:10;}
	.st5{fill:#EE3840;}
	.st6{fill:#FFE1D6;}
	.st7{fill:#00922a;}
	.st8{fill:#FFFFFF;}
	.st9{fill:none;stroke:#5DA35B;stroke-width:3;stroke-miterlimit:10;}
	.st10{fill:none;}
	.st11{fill:#4FBA6F;}
	.st12{fill:#48A0DC;}
	.st13{fill:#556080;}
	.st14{fill:#E2E2E2;}
	.st15{fill:#399137;stroke:#FFFFFF;stroke-miterlimit:10;}
	.st16{fill:#ED0F0F;stroke:#FFFFFF;stroke-width:0.7;stroke-miterlimit:10;}
	.st17{fill:none;stroke:#FFFFFF;stroke-miterlimit:10;}
</style>
<g>
	<g>
		<path class="st7" d="M12.2,24.4C5.5,24.4,0,18.9,0,12.2S5.5,0,12.2,0s12.2,5.5,12.2,12.2S18.9,24.4,12.2,24.4z M12.2,1.4    c-6,0-10.8,4.8-10.8,10.8c0,6,4.8,10.8,10.8,10.8S23,18.1,23,12.2C23,6.2,18.1,1.4,12.2,1.4z"/>
	</g>
	<g>
		<g>
			<path class="st7" d="M14.3,13.9h1.5v1.6h-1.5v2.6h-2v-2.6H7.3l-0.1-1.2l5.1-8h2V13.9z M9.3,13.9h3.1V9l-0.1,0.3L9.3,13.9z"/>
		</g>
	</g>
</g>
</svg>