<?xml version="1.0" encoding="UTF-8"?>
<!-- Generator: Adobe Illustrator 19.2.1, SVG Export Plug-In . SVG Version: 6.00 Build 0)  -->
<svg version="1.1" id="Слой_1" xmlns="http://www.w3.org/2000/svg" xmlns:xlink="http://www.w3.org/1999/xlink" x="0px" y="0px" viewBox="0 0 41.5 41.5" style="enable-background:new 0 0 41.5 41.5;" xml:space="preserve">
<style type="text/css">
	.st0{fill:#52C306;}
	.st1{fill:#388F04;}
	.st2{fill:#00922a;}
	.st3{fill:none;stroke:#399137;stroke-miterlimit:10;}
	.st4{fill:#399137;stroke:#399137;stroke-width:0.3;stroke-miterlimit:10;}
	.st5{fill:#EE3840;}
	.st6{fill:#FFE1D6;}
	.st7{fill:#5DA35B;}
	.st8{fill:#FFFFFF;}
	.st9{fill:none;stroke:#5DA35B;stroke-width:3;stroke-miterlimit:10;}
	.st10{fill:none;}
	.st11{fill:#4FBA6F;}
	.st12{fill:#48A0DC;}
	.st13{fill:#556080;}
	.st14{fill:#E2E2E2;}
	.st15{fill:#399137;stroke:#FFFFFF;stroke-miterlimit:10;}
	.st16{fill:#ED0F0F;stroke:#FFFFFF;stroke-width:0.7;stroke-miterlimit:10;}
	.st17{fill:none;stroke:#FFFFFF;stroke-miterlimit:10;}
</style>
<path class="st2" d="M41.2,32.3c-1.5-2.9-7.1-6.2-7.1-6.2c-1.3-0.7-2.8-0.8-3.5,0.5c0,0-1.8,2.2-2.3,2.5c-2.1,1.4-4.1,1.4-6-0.6  L13,19.3c-2-2-2-3.9-0.6-6c0.3-0.5,2.5-2.3,2.5-2.3c1.3-0.7,1.2-2.3,0.5-3.5c0,0-3.3-5.6-6.2-7.1C8-0.3,6.5-0.1,5.6,0.9l-2,2  c-6.4,6.4-3.3,13.7,3.2,20.1l11.8,11.8c6.4,6.4,13.7,9.6,20.1,3.2l2-2C41.6,35,41.8,33.5,41.2,32.3L41.2,32.3z M41.2,32.3"/>
</svg>