<?xml version="1.0" encoding="UTF-8"?>
<!-- Generator: Adobe Illustrator 19.2.1, SVG Export Plug-In . SVG Version: 6.00 Build 0)  -->
<svg version="1.1" id="Слой_1" xmlns="http://www.w3.org/2000/svg" xmlns:xlink="http://www.w3.org/1999/xlink" x="0px" y="0px" viewBox="0 0 45.5 35.7" style="enable-background:new 0 0 45.5 35.7;" xml:space="preserve">
<style type="text/css">
	.st0{fill:#52C306;}
	.st1{fill:#388F04;}
	.st2{fill:#00922a;}
	.st3{fill:none;stroke:#399137;stroke-miterlimit:10;}
	.st4{fill:#00922a;stroke:#00922a;stroke-width:0.3;stroke-miterlimit:10;}
	.st5{fill:#EE3840;}
	.st6{fill:#FFE1D6;}
	.st7{fill:#5DA35B;}
	.st8{fill:#FFFFFF;}
	.st9{fill:none;stroke:#5DA35B;stroke-width:3;stroke-miterlimit:10;}
	.st10{fill:none;}
	.st11{fill:#4FBA6F;}
	.st12{fill:#48A0DC;}
	.st13{fill:#556080;}
	.st14{fill:#E2E2E2;}
	.st15{fill:#00922a;stroke:#FFFFFF;stroke-miterlimit:10;}
	.st16{fill:#ED0F0F;stroke:#FFFFFF;stroke-width:0.7;stroke-miterlimit:10;}
	.st17{fill:none;stroke:#FFFFFF;stroke-miterlimit:10;}
</style>
<g>
	<path class="st2" d="M41.4,35.7c1,0,1.9-0.3,2.7-1L31.2,21.8c-0.3,0.2-0.6,0.4-0.9,0.6c-1,0.7-1.7,1.3-2.3,1.7   c-0.6,0.4-1.4,0.8-2.4,1.2c-1,0.4-1.9,0.6-2.8,0.6h0c-0.9,0-1.8-0.2-2.8-0.6c-1-0.4-1.8-0.8-2.4-1.2c-0.6-0.4-1.4-1-2.3-1.7   c-0.3-0.2-0.6-0.4-0.9-0.6L1.4,34.7c0.8,0.7,1.6,1,2.7,1H41.4z M41.4,35.7"/>
	<path class="st2" d="M2.6,13.7c-1-0.6-1.8-1.4-2.6-2.2v19.6l11.4-11.4C9.1,18.2,6.2,16.2,2.6,13.7L2.6,13.7z M2.6,13.7"/>
	<path class="st2" d="M42.9,13.7c-3.5,2.3-6.4,4.4-8.8,6l11.3,11.3V11.5C44.7,12.3,43.9,13.1,42.9,13.7L42.9,13.7z M42.9,13.7"/>
	<path class="st2" d="M41.4,0H4.1c-1.3,0-2.3,0.4-3,1.3C0.4,2.2,0,3.3,0,4.6c0,1.1,0.5,2.2,1.4,3.5c0.9,1.2,1.9,2.2,3,2.9   c0.6,0.4,2.3,1.6,5.2,3.6c1.6,1.1,2.9,2,4.1,2.8c1,0.7,1.9,1.3,2.6,1.8c0.1,0.1,0.2,0.1,0.4,0.3c0.2,0.1,0.4,0.3,0.7,0.5   c0.5,0.4,1,0.7,1.4,1c0.4,0.2,0.8,0.5,1.3,0.8c0.5,0.3,1,0.5,1.5,0.7c0.5,0.2,0.9,0.2,1.3,0.2h0c0.4,0,0.8-0.1,1.3-0.2   c0.5-0.2,0.9-0.4,1.5-0.7c0.5-0.3,1-0.6,1.3-0.8c0.4-0.2,0.8-0.6,1.4-1c0.3-0.2,0.5-0.4,0.7-0.5c0.2-0.1,0.3-0.2,0.4-0.3   c0.5-0.4,1.4-1,2.6-1.8c2.1-1.5,5.2-3.6,9.3-6.5c1.2-0.9,2.3-1.9,3.1-3.1c0.8-1.2,1.2-2.5,1.2-3.8c0-1.1-0.4-2.1-1.2-2.9   C43.5,0.4,42.5,0,41.4,0L41.4,0z M41.4,0"/>
</g>
</svg>