<?xml version="1.0" encoding="UTF-8"?>
<!-- Generator: Adobe Illustrator 19.2.1, SVG Export Plug-In . SVG Version: 6.00 Build 0)  -->
<svg version="1.1" id="Слой_1" xmlns="http://www.w3.org/2000/svg" xmlns:xlink="http://www.w3.org/1999/xlink" x="0px" y="0px" viewBox="0 0 15.1 15.1" style="enable-background:new 0 0 15.1 15.1;" xml:space="preserve">
<style type="text/css">
	.st0{fill:#52C306;}
	.st1{fill:#388F04;}
	.st2{fill:#00922a;}
	.st3{fill:none;stroke:#399137;stroke-miterlimit:10;}
	.st4{fill:#399137;stroke:#399137;stroke-width:0.3;stroke-miterlimit:10;}
	.st5{fill:#EE3840;}
	.st6{fill:#FFE1D6;}
	.st7{fill:#5DA35B;}
	.st8{fill:#FFFFFF;}
	.st9{fill:none;stroke:#5DA35B;stroke-width:3;stroke-miterlimit:10;}
	.st10{fill:none;}
	.st11{fill:#4FBA6F;}
	.st12{fill:#48A0DC;}
	.st13{fill:#556080;}
	.st14{fill:#E2E2E2;}
	.st15{fill:#399137;stroke:#FFFFFF;stroke-miterlimit:10;}
	.st16{fill:#ED0F0F;stroke:#FFFFFF;stroke-width:0.7;stroke-miterlimit:10;}
	.st17{fill:none;stroke:#FFFFFF;stroke-miterlimit:10;}
</style>
<g>
	<g>
		<path class="st2" d="M7.6,0C3.4,0,0,3.4,0,7.6c0,4.2,3.4,7.6,7.6,7.6c4.2,0,7.6-3.4,7.6-7.6C15.1,3.4,11.8,0,7.6,0L7.6,0z     M11.9,5.2l-5.5,5.7C6.4,11,6.3,11,6.2,11c-0.1,0-0.2,0-0.2-0.1L3.3,8L3.2,7.9C3.1,7.9,3.1,7.8,3.1,7.7c0-0.1,0-0.2,0.1-0.2L3.7,7    C3.8,6.8,4,6.8,4.2,7l0,0l1.9,2c0.1,0.1,0.2,0.1,0.2,0l4.6-4.8h0c0.1-0.1,0.3-0.1,0.5,0l0.5,0.5C12.1,4.8,12.1,5.1,11.9,5.2    L11.9,5.2z M11.9,5.2"/>
	</g>
</g>
</svg>