<?xml version="1.0" encoding="UTF-8"?>
<!-- Generator: Adobe Illustrator 19.2.1, SVG Export Plug-In . SVG Version: 6.00 Build 0)  -->
<svg version="1.1" id="Слой_1" xmlns="http://www.w3.org/2000/svg" xmlns:xlink="http://www.w3.org/1999/xlink" x="0px" y="0px" viewBox="0 0 28.1 30.1" style="enable-background:new 0 0 28.1 30.1;" xml:space="preserve">
<style type="text/css">
	.st0{fill:#52C306;}
	.st1{fill:#388F04;}
	.st2{fill:#399137;}
	.st3{fill:none;stroke:#399137;stroke-miterlimit:10;}
	.st4{fill:#399137;stroke:#399137;stroke-width:0.3;stroke-miterlimit:10;}
	.st5{fill:#EE3840;}
	.st6{fill:#FFE1D6;}
	.st7{fill:#5DA35B;}
	.st8{fill:#FFFFFF;}
	.st9{fill:none;stroke:#5DA35B;stroke-width:3;stroke-miterlimit:10;}
	.st10{fill:none;}
	.st11{fill:#4FBA6F;}
	.st12{fill:#48A0DC;}
	.st13{fill:#556080;}
	.st14{fill:#E2E2E2;}
	.st15{fill:#399137;stroke:#FFFFFF;stroke-miterlimit:10;}
	.st16{fill:#ED0F0F;stroke:#FFFFFF;stroke-width:0.7;stroke-miterlimit:10;}
	.st17{fill:none;stroke:#FFFFFF;stroke-miterlimit:10;}
</style>
<g>
	<path class="st8" d="M0.9,15.7h17.9l-4.6,4.7c-0.4,0.4-0.4,1,0,1.3c0.2,0.2,0.4,0.3,0.6,0.3c0.2,0,0.5-0.1,0.6-0.3l5.8-5.8   c0.2-0.2,0.3-0.4,0.3-0.6c0-0.2-0.1-0.5-0.3-0.6L21,14.5c-0.1-0.1-0.1-0.2-0.2-0.2L15.5,9c-0.4-0.4-0.9-0.4-1.3,0   c-0.4,0.4-0.4,0.8,0,1.2l3.8,3.7H0.9c-0.5,0-0.9,0.4-0.9,0.9C0,15.3,0.4,15.7,0.9,15.7L0.9,15.7z M0.9,15.7"/>
	<path class="st8" d="M28.1,26.7V4.3c0-2.2-1.8-4.3-3.9-4.3H12.5c-2.1,0-4.2,2.1-4.2,4.3v5.3c0,0.5,0.4,0.9,0.9,0.9   c0.5,0,0.9-0.4,0.9-0.9V4.3c0-1.2,1.2-2.5,2.4-2.5h11.7c1.2,0,2.1,1.3,2.1,2.5v22.4c0,1.2-1,1.7-2.1,1.7H12.5   c-1.1,0-2.4-0.4-2.4-1.7v-5.4c0-0.5-0.4-0.9-0.9-0.9c-0.5,0-0.9,0.4-0.9,0.9v5.4c0,2.1,1.9,3.5,4.2,3.5h11.7   C26.5,30.1,28.1,28.7,28.1,26.7L28.1,26.7z M28.1,26.7"/>
</g>
</svg>