<?xml version="1.0" encoding="UTF-8"?>
<!-- Generator: Adobe Illustrator 19.2.1, SVG Export Plug-In . SVG Version: 6.00 Build 0)  -->
<svg version="1.1" id="Слой_1" xmlns="http://www.w3.org/2000/svg" xmlns:xlink="http://www.w3.org/1999/xlink" x="0px" y="0px" viewBox="0 0 24.2 24.2" style="enable-background:new 0 0 24.2 24.2;" xml:space="preserve">
<style type="text/css">
	.st0{fill:#52C306;}
	.st1{fill:#388F04;}
	.st2{fill:#399137;}
	.st3{fill:none;stroke:#399137;stroke-miterlimit:10;}
	.st4{fill:#399137;stroke:#399137;stroke-width:0.3;stroke-miterlimit:10;}
	.st5{fill:#EE3840;}
	.st6{fill:#FFE1D6;}
	.st7{fill:#00922a;}
	.st8{fill:#FFFFFF;}
	.st9{fill:none;stroke:#5DA35B;stroke-width:3;stroke-miterlimit:10;}
	.st10{fill:none;}
	.st11{fill:#4FBA6F;}
	.st12{fill:#48A0DC;}
	.st13{fill:#556080;}
	.st14{fill:#E2E2E2;}
	.st15{fill:#399137;stroke:#FFFFFF;stroke-miterlimit:10;}
	.st16{fill:#ED0F0F;stroke:#FFFFFF;stroke-width:0.7;stroke-miterlimit:10;}
	.st17{fill:none;stroke:#FFFFFF;stroke-miterlimit:10;}
</style>
<g>
	<g>
		<g>
			<path class="st7" d="M14.2,6.1v1.3h-0.3c-1.2,0-2.1,0.4-2.8,1C10.4,9.1,10,10,9.9,11.2c0.6-0.7,1.5-1.1,2.5-1.1     c1,0,1.8,0.4,2.5,1.1s0.9,1.7,0.9,2.8c0,1.2-0.3,2.2-1,2.9s-1.6,1.1-2.7,1.1c-1.1,0-2-0.4-2.8-1.3c-0.7-0.9-1.1-2-1.1-3.4v-0.6     c0-2.2,0.5-3.8,1.4-5c0.9-1.1,2.3-1.7,4.1-1.8H14.2z M12.2,11.4c-0.5,0-1,0.2-1.4,0.5c-0.4,0.3-0.7,0.7-0.9,1.2v0.6     c0,1,0.2,1.8,0.7,2.4c0.4,0.6,1,0.9,1.6,0.9c0.7,0,1.2-0.2,1.6-0.7c0.4-0.5,0.6-1.1,0.6-2c0-0.8-0.2-1.5-0.6-2     C13.4,11.7,12.8,11.4,12.2,11.4z"/>
		</g>
	</g>
	<g>
		<path class="st7" d="M12.1,24.2C5.4,24.2,0,18.8,0,12.1C0,5.4,5.4,0,12.1,0c6.7,0,12.1,5.4,12.1,12.1    C24.2,18.8,18.8,24.2,12.1,24.2z M12.1,1.4C6.2,1.4,1.4,6.2,1.4,12.1c0,5.9,4.8,10.7,10.7,10.7c5.9,0,10.7-4.8,10.7-10.7    C22.8,6.2,18,1.4,12.1,1.4z"/>
	</g>
</g>
</svg>