<?xml version="1.0" encoding="utf-8"?>
<!-- Generator: Adobe Illustrator 19.2.1, SVG Export Plug-In . SVG Version: 6.00 Build 0)  -->
<svg version="1.1" id="Слой_1" xmlns="http://www.w3.org/2000/svg" xmlns:xlink="http://www.w3.org/1999/xlink" x="0px" y="0px"
	 viewBox="0 0 125.2 34.7" style="enable-background:new 0 0 125.2 34.7;" xml:space="preserve">
<style type="text/css">
	.st0{fill:#FAFAFA;stroke:#E9E9E9;stroke-miterlimit:10;}
	.st1{fill:url(#vectormap1_KYA_1_);stroke:#929BE0;stroke-width:0.926;}
	.st2{fill:#F9F9F9;}
	.st3{fill:#E3E3E5;}
	.st4{fill:#52C306;}
	.st5{fill:#388F04;}
	.st6{fill:#399137;}
	.st7{fill:none;stroke:#399137;stroke-miterlimit:10;}
	.st8{fill:#399137;stroke:#399137;stroke-width:0.3;stroke-miterlimit:10;}
	.st9{fill:#EE3840;}
	.st10{fill:#FFE1D6;}
	.st11{fill:#5DA35B;}
	.st12{fill:#FFFFFF;}
	.st13{fill:none;stroke:#5DA35B;stroke-width:3;stroke-miterlimit:10;}
	.st14{fill:none;}
	.st15{fill:#4FBA6F;}
	.st16{fill:#48A0DC;}
	.st17{fill:#556080;}
	.st18{fill:#E2E2E2;}
	.st19{fill:#399137;stroke:#FFFFFF;stroke-miterlimit:10;}
	.st20{fill:#ED0F0F;stroke:#FFFFFF;stroke-width:0.7;stroke-miterlimit:10;}
	.st21{fill:none;stroke:#FFFFFF;stroke-miterlimit:10;}
	.st22{fill:#3C92CA;}
	.st23{fill:#2C2F33;}
	.st24{fill:#828282;}
	.st25{fill:#006EDB;}
	.st26{opacity:0.25;}
	.st27{fill:none;stroke:#DDDDDD;stroke-width:5;stroke-miterlimit:10;}
	.st28{fill:#B7B7B7;}
	.st29{fill:#CCCCCB;}
	.st30{fill:#A4A5A8;}
	.st31{fill:#59595B;}
	.st32{fill:#F0F1F1;}
	.st33{fill:#E5E6E7;}
	.st34{fill:#00CC00;}
	.st35{fill:#FFC000;}
	.st36{fill:#FF6251;}
	.st37{fill:#DADAD9;}
	.st38{fill:#9E9E9E;}
	.st39{fill:#CFD0D2;}
	.st40{fill:#B8B8B8;}
	.st41{fill:#F6F8F9;}
	.st42{fill:#D8D8D7;}
	.st43{fill:#51924B;}
	.st44{fill:#FAF9FA;}
	.st45{fill:url(#XMLID_80_);}
	.st46{fill:url(#XMLID_150_);}
	.st47{fill:#282828;}
	.st48{fill:#202020;}
	.st49{opacity:0.8;fill:url(#XMLID_190_);}
	.st50{fill:none;stroke:#1F1F1F;stroke-width:1.5045;stroke-miterlimit:10;}
	.st51{fill:none;stroke:url(#XMLID_191_);stroke-width:1.5045;stroke-miterlimit:10;}
	.st52{fill:none;stroke:#18181A;stroke-width:0.8004;stroke-miterlimit:10;}
	.st53{fill:none;stroke:#FFFDFF;stroke-width:1.4988;stroke-miterlimit:10;}
	.st54{fill:none;stroke:url(#XMLID_192_);stroke-width:1.4988;stroke-miterlimit:10;}
	.st55{opacity:0.3;fill:#FFFFFF;}
	.st56{fill:#141414;}
	.st57{fill:#1C1C1C;}
	.st58{fill:url(#XMLID_193_);}
	.st59{fill:#2C2C2C;stroke:#000000;stroke-width:0.5;stroke-miterlimit:10;stroke-opacity:0.3;}
	.st60{fill:#2D2B38;}
	.st61{clip-path:url(#XMLID_196_);}
	.st62{clip-path:url(#XMLID_196_);fill:#FFFFFF;}
	.st63{fill:url(#XMLID_197_);}
	.st64{fill:url(#XMLID_198_);}
	.st65{fill:url(#XMLID_199_);}
	.st66{fill:none;stroke:url(#XMLID_200_);stroke-width:1.5045;stroke-miterlimit:10;}
	.st67{fill:none;stroke:url(#XMLID_201_);stroke-width:1.4988;stroke-miterlimit:10;}
	.st68{fill:url(#XMLID_202_);}
	.st69{clip-path:url(#XMLID_204_);}
	.st70{clip-path:url(#XMLID_204_);fill:#FFFFFF;}
	.st71{fill:url(#XMLID_205_);}
	.st72{clip-path:url(#XMLID_206_);}
	.st73{fill:#ACE0AA;}
	.st74{opacity:0.2;fill:#E7E0D0;}
	.st75{fill:none;stroke:#FFFDFF;stroke-width:5.0219;stroke-linecap:square;stroke-miterlimit:10;}
	.st76{fill:#7F9FD3;}
	.st77{fill:#A2EBED;stroke:#FFFDFF;stroke-width:7;stroke-miterlimit:10;}
	.st78{fill:#A2EBED;}
	.st79{opacity:0.2;fill:#7F9FD3;}
	.st80{fill:#FDFC81;}
	.st81{fill:none;stroke:#FFFDFF;stroke-width:10.0437;stroke-linecap:square;stroke-miterlimit:10;}
	.st82{fill:none;stroke:#FFFDFF;stroke-width:5.0219;stroke-linecap:square;stroke-linejoin:bevel;stroke-miterlimit:10;}
	.st83{fill:none;stroke:#FFFDFF;stroke-width:5.0219;stroke-miterlimit:10;}
	.st84{fill:none;stroke:#FFFDFF;stroke-width:8.7882;stroke-linecap:square;stroke-miterlimit:10;}
	.st85{fill:none;stroke:#FFFDFF;stroke-width:8.7882;stroke-linecap:square;stroke-linejoin:bevel;stroke-miterlimit:10;}
	.st86{fill:none;stroke:#FFFDFF;stroke-width:0.3139;stroke-linecap:square;stroke-miterlimit:10;}
	.st87{opacity:0.3;fill:#949494;}
	.st88{fill:none;stroke:#828282;stroke-width:2;stroke-linecap:round;stroke-miterlimit:10;stroke-dasharray:8,12;}
	.st89{fill:#EFEFEF;}
	.st90{fill:url(#XMLID_207_);}
	.st91{fill:url(#XMLID_208_);}
	.st92{fill:none;stroke:url(#XMLID_209_);stroke-width:1.5045;stroke-miterlimit:10;}
	.st93{fill:none;stroke:url(#XMLID_210_);stroke-width:1.4988;stroke-miterlimit:10;}
	.st94{fill:url(#XMLID_211_);}
	.st95{clip-path:url(#XMLID_212_);}
	.st96{clip-path:url(#XMLID_212_);fill:#FFFFFF;}
	.st97{fill:url(#XMLID_213_);}
	.st98{clip-path:url(#XMLID_214_);}
	.st99{fill:url(#XMLID_215_);}
	.st100{fill:url(#XMLID_216_);}
	.st101{fill:none;stroke:url(#XMLID_217_);stroke-width:1.5045;stroke-miterlimit:10;}
	.st102{fill:none;stroke:url(#XMLID_218_);stroke-width:1.4988;stroke-miterlimit:10;}
	.st103{fill:url(#XMLID_219_);}
	.st104{clip-path:url(#XMLID_220_);}
	.st105{clip-path:url(#XMLID_220_);fill:#FFFFFF;}
	.st106{fill:url(#XMLID_221_);}
	.st107{clip-path:url(#XMLID_222_);}
	.st108{fill:#E2E5E7;}
	.st109{fill:#B0B7BD;}
	.st110{fill:#CAD1D8;}
	.st111{fill:none;stroke:#7F7E7C;stroke-width:4;stroke-linejoin:round;stroke-miterlimit:10;}
	.st112{fill:#279E3D;}
	.st113{fill:#CA3800;}
	.st114{fill:#D1D1D1;}
	.st115{fill:#E8E8E8;}
	.st116{fill:#F2F2F2;}
	.st117{fill:#FF5252;}
	.st118{fill:#00DDC2;}
	.st119{fill:#D8D8D8;}
	.st120{fill:#006DF3;}
	.st121{fill:url(#vectormap1_MOW_1_);stroke:#929BE0;stroke-width:1.1;}
	.st122{fill:url(#vectormap1_SPE_1_);stroke:#929BE0;stroke-width:1.1;}
	.st123{fill:url(#vectormap1_YAR_1_);stroke:#929BE0;stroke-width:1.1;}
	.st124{fill:url(#vectormap1_CHE_1_);stroke:#929BE0;stroke-width:1.1;}
	.st125{fill:url(#vectormap1_ULY_1_);stroke:#929BE0;stroke-width:1.1;}
	.st126{fill:url(#vectormap1_TYU_1_);stroke:#929BE0;stroke-width:1.1;}
	.st127{fill:url(#vectormap1_TUL_1_);stroke:#929BE0;stroke-width:1.1;}
	.st128{fill:url(#vectormap1_RYA_1_);stroke:#929BE0;stroke-width:1.1;}
	.st129{fill:url(#vectormap1_ORL_1_);stroke:#929BE0;stroke-width:1.1;}
	.st130{fill:url(#vectormap1_OMS_1_);stroke:#929BE0;stroke-width:1.1;}
	.st131{fill:url(#vectormap1_LIP_1_);stroke:#929BE0;stroke-width:1.1;}
	.st132{fill:url(#vectormap1_KRS_1_);stroke:#929BE0;stroke-width:1.1;}
	.st133{fill:url(#vectormap1_KGN_1_);stroke:#929BE0;stroke-width:1.1;}
	.st134{fill:url(#vectormap1_KGD_1_);stroke:#929BE0;stroke-width:1.1;}
	.st135{fill:url(#vectormap1_IVA_1_);stroke:#929BE0;stroke-width:1.1;}
	.st136{fill:url(#vectormap1_KHA_1_);stroke:#929BE0;stroke-width:1.1;}
	.st137{fill:url(#vectormap1_CE_1_);stroke:#929BE0;stroke-width:1.1;}
	.st138{fill:url(#vectormap1_SE_1_);stroke:#929BE0;stroke-width:1.1;}
	.st139{fill:url(#vectormap1_KL_1_);stroke:#929BE0;stroke-width:1.1;}
	.st140{fill:url(#vectormap1_IN_1_);stroke:#929BE0;stroke-width:1.1;}
	.st141{fill:url(#vectormap1_AL_1_);stroke:#929BE0;stroke-width:1.1;}
	.st142{fill:url(#vectormap1_AD_1_);stroke:#929BE0;stroke-width:1.1;}
	.st143{fill:url(#vectormap1_KIR_1_);stroke:#929BE0;stroke-width:1.1;}
	.st144{fill:url(#vectormap1_TAM_1_);stroke:#929BE0;stroke-width:1.1;}
	.st145{fill:url(#vectormap1_KOS_1_);stroke:#929BE0;stroke-width:1.1;}
	.st146{fill:url(#vectormap1_CHU_1_);stroke:#929BE0;stroke-width:1.1;}
	.st147{fill:url(#vectormap1_YEV_1_);stroke:#929BE0;stroke-width:1.1;}
	.st148{fill:url(#vectormap1_TY_1_);stroke:#929BE0;stroke-width:1.1;}
	.st149{fill:url(#vectormap1_SAK_1_);stroke:#929BE0;stroke-width:1.1;}
	.st150{fill:url(#vectormap1_AMU_1_);stroke:#929BE0;stroke-width:1.1;}
	.st151{fill:url(#vectormap1_BU_1_);stroke:#929BE0;stroke-width:1.1;}
	.st152{fill:url(#vectormap1_KK_1_);stroke:#929BE0;stroke-width:1.1;}
	.st153{fill:url(#vectormap1_KEM_1_);stroke:#929BE0;stroke-width:1.1;}
	.st154{fill:url(#vectormap1_NVS_1_);stroke:#929BE0;stroke-width:1.1;}
	.st155{fill:url(#vectormap1_ALT_1_);stroke:#929BE0;stroke-width:1.1;}
	.st156{fill:url(#vectormap1_DA_1_);stroke:#929BE0;stroke-width:1.1;}
	.st157{fill:url(#vectormap1_STA_1_);stroke:#929BE0;stroke-width:1.1;}
	.st158{fill:url(#vectormap1_KB_1_);stroke:#929BE0;stroke-width:1.1;}
	.st159{fill:url(#vectormap1_KC_1_);stroke:#929BE0;stroke-width:1.1;}
	.st160{fill:url(#vectormap1_ROS_1_);stroke:#929BE0;stroke-width:1.1;}
	.st161{fill:url(#vectormap1_SAM_1_);stroke:#929BE0;stroke-width:1.1;}
	.st162{fill:url(#vectormap1_ME_1_);stroke:#929BE0;stroke-width:1.1;}
	.st163{fill:url(#vectormap1_CU_1_);stroke:#929BE0;stroke-width:1.1;}
	.st164{fill:url(#vectormap1_NIZ_1_);stroke:#929BE0;stroke-width:1.1;}
	.st165{fill:url(#vectormap1_MOS_1_);stroke:#929BE0;stroke-width:1.1;}
	.st166{fill:url(#vectormap1_KLU_1_);stroke:#929BE0;stroke-width:1.1;}
	.st167{fill:url(#vectormap1_BEL_1_);stroke:#929BE0;stroke-width:1.1;}
	.st168{fill:url(#vectormap1_ZAB_1_);stroke:#929BE0;stroke-width:1.1;}
	.st169{fill:url(#vectormap1_PRI_1_);stroke:#929BE0;stroke-width:1.1;}
	.st170{fill:url(#vectormap1_KAM_1_);stroke:#929BE0;stroke-width:1.1;}
	.st171{fill:url(#vectormap1_MAG_1_);stroke:#929BE0;stroke-width:1.1;}
	.st172{fill:url(#vectormap1_VOR_1_);stroke:#929BE0;stroke-width:1.1;}
	.st173{fill:url(#vectormap1_SMO_1_);stroke:#929BE0;stroke-width:1.1;}
	.st174{fill:#ABC4F3;stroke:#23268D;stroke-width:1.1;}
	.st175{fill:url(#vectormap1_SVE_1_);stroke:#929BE0;stroke-width:0.926;}
	.st176{fill:url(#vectormap1_PER_1_);stroke:#929BE0;stroke-width:0.926;}
	.st177{fill:url(#vectormap1_CR_2_);stroke:#929BE0;stroke-width:0.926;}
	.st178{fill:url(#vectormap1_SEV_1_);stroke:#929BE0;stroke-width:0.926;}
	.st179{fill:url(#vectormap1_KDA_1_);stroke:#929BE0;stroke-width:0.926;}
	.st180{fill:url(#vectormap1_ORE_1_);stroke:#929BE0;stroke-width:0.926;}
	.st181{fill:url(#vectormap1_BA_1_);stroke:#929BE0;stroke-width:0.926;}
	.st182{fill:url(#vectormap1_TA_1_);stroke:#929BE0;stroke-width:0.926;}
	.st183{fill:url(#vectormap1_UD_1_);stroke:#929BE0;stroke-width:0.926;}
	.st184{fill:url(#vectormap1_NEN_1_);stroke:#929BE0;stroke-width:0.926;}
	.st185{fill:url(#vectormap1_ARK_1_);stroke:#929BE0;stroke-width:0.926;}
	.st186{fill:url(#vectormap1_SA_1_);stroke:#929BE0;stroke-width:0.926;}
	.st187{fill:url(#vectormap1_IRK_1_);stroke:#929BE0;stroke-width:0.926;}
	.st188{fill:url(#vectormap1_TOM_1_);stroke:#929BE0;stroke-width:0.926;}
	.st189{fill:url(#vectormap1_KHM_1_);stroke:#929BE0;stroke-width:0.926;}
	.st190{fill:url(#vectormap1_YAN_1_);stroke:#929BE0;stroke-width:0.926;}
	.st191{fill:url(#vectormap1_KO_1_);stroke:#929BE0;stroke-width:0.926;}
	.st192{fill:url(#vectormap1_TVE_1_);stroke:#929BE0;stroke-width:0.926;}
	.st193{fill:url(#vectormap1_BRY_1_);stroke:#929BE0;stroke-width:0.926;}
	.st194{fill:url(#vectormap1_MUR_1_);stroke:#929BE0;stroke-width:0.926;}
	.st195{fill:url(#vectormap1_PNZ_1_);stroke:#929BE0;stroke-width:0.926;}
	.st196{fill:url(#vectormap1_VLA_1_);stroke:#929BE0;stroke-width:0.926;}
	.st197{fill:url(#vectormap1_LEN_1_);stroke:#929BE0;stroke-width:0.926;}
	.st198{fill:url(#vectormap1_AST_1_);stroke:#929BE0;stroke-width:0.926;}
	.st199{fill:url(#vectormap1_VGG_1_);stroke:#929BE0;stroke-width:0.926;}
	.st200{fill:url(#vectormap1_SAR_1_);stroke:#929BE0;stroke-width:0.926;}
	.st201{fill:url(#vectormap1_MO_1_);stroke:#929BE0;stroke-width:0.926;}
	.st202{fill:url(#vectormap1_KR_1_);stroke:#929BE0;stroke-width:0.926;}
	.st203{fill:url(#vectormap1_PSK_1_);stroke:#929BE0;stroke-width:0.926;}
	.st204{fill:url(#vectormap1_NGR_1_);stroke:#929BE0;stroke-width:0.926;}
	.st205{fill:url(#vectormap1_VLG_1_);stroke:#929BE0;stroke-width:0.926;}
	.st206{fill:#CEE8FA;}
	.st207{fill:none;stroke:#828282;stroke-width:0.655;stroke-linecap:round;stroke-miterlimit:10;stroke-dasharray:2.62,3.93;}
	.st208{fill:none;stroke:#7F7E7C;stroke-width:1.6171;stroke-linejoin:round;stroke-miterlimit:10;}
</style>
<g>
	<g>
		<path d="M121.7,34.7H4.5c-2.5,0-4.5-2-4.5-4.5V4.5C0,2,2,0,4.5,0h117.1c2,0,3.5,1.6,3.5,3.5v27.6
			C125.2,33.1,123.6,34.7,121.7,34.7z"/>
	</g>
	<path class="st6" d="M0,3v28.8c0,1.6,1.3,3,3,3H31c2.4-5.2,3.7-10.9,3.7-16.9c0-6.4-1.5-12.4-4.1-17.8H3C1.3,0,0,1.3,0,3z"/>
	<g>
		<path class="st12" d="M12.9,10.5v2.7H15v1.5h-2.1v6.9c0,0.4,0.1,0.8,0.3,1c0.2,0.2,0.5,0.3,0.9,0.3c0.2,0,0.5,0,0.9-0.1v1.5
			c-0.5,0.1-1,0.2-1.5,0.2c-0.9,0-1.5-0.3-1.9-0.8c-0.4-0.5-0.6-1.2-0.6-2.2v-6.9H9v-1.5h2v-2.7H12.9z"/>
		<path class="st12" d="M24.1,24.4c-0.1-0.2-0.2-0.6-0.3-1.2c-0.9,0.9-1.9,1.4-3.2,1.4c-1.1,0-2-0.3-2.7-0.9
			c-0.7-0.6-1.1-1.4-1.1-2.4c0-1.2,0.4-2.1,1.3-2.7c0.9-0.6,2.1-1,3.7-1h1.9v-0.9c0-0.7-0.2-1.2-0.6-1.6c-0.4-0.4-1-0.6-1.8-0.6
			c-0.7,0-1.2,0.2-1.7,0.5c-0.5,0.3-0.7,0.8-0.7,1.2h-1.9c0-0.6,0.2-1.1,0.6-1.6c0.4-0.5,0.9-0.9,1.6-1.2c0.7-0.3,1.4-0.5,2.2-0.5
			c1.3,0,2.3,0.3,3,1s1.1,1.5,1.1,2.7v5.1c0,1,0.1,1.8,0.4,2.4v0.2H24.1z M20.9,22.9c0.6,0,1.2-0.2,1.7-0.5c0.5-0.3,0.9-0.7,1.2-1.2
			V19h-1.5c-2.3,0-3.5,0.7-3.5,2c0,0.6,0.2,1.1,0.6,1.4C19.8,22.8,20.3,22.9,20.9,22.9z"/>
		<path class="st12" d="M31.3,10.5v2.7h2.1v1.5h-2.1v6.9c0,0.4,0.1,0.8,0.3,1c0.2,0.2,0.5,0.3,0.9,0.3c0.2,0,0.5,0,0.9-0.1v1.5
			c-0.5,0.1-1,0.2-1.5,0.2c-0.9,0-1.5-0.3-1.9-0.8c-0.4-0.5-0.6-1.2-0.6-2.2v-6.9h-2v-1.5h2v-2.7H31.3z"/>
		<path class="st12" d="M37.4,13.2l0.1,1.2c0.8-1,1.9-1.4,3.3-1.4c1.6,0,2.6,0.6,3.2,1.8c0.4-0.5,0.9-1,1.4-1.3
			c0.6-0.3,1.3-0.5,2.1-0.5c2.4,0,3.7,1.3,3.7,3.9v7.5h-1.9V17c0-0.8-0.2-1.4-0.5-1.8c-0.4-0.4-1-0.6-1.8-0.6
			c-0.7,0-1.3,0.2-1.8,0.6c-0.5,0.4-0.7,1-0.8,1.7v7.4h-1.9v-7.3c0-1.6-0.8-2.4-2.4-2.4c-1.2,0-2.1,0.5-2.6,1.6v8.1h-1.9V13.2H37.4z
			"/>
		<path class="st12" d="M58.7,24.6c-1.5,0-2.7-0.5-3.7-1.5c-0.9-1-1.4-2.3-1.4-4v-0.4c0-1.1,0.2-2.1,0.6-3c0.4-0.9,1-1.5,1.8-2
			c0.8-0.5,1.6-0.7,2.5-0.7c1.4,0,2.6,0.5,3.4,1.4s1.2,2.3,1.2,4.1v0.8h-7.5c0,1.1,0.3,2,1,2.7c0.6,0.7,1.4,1,2.3,1
			c0.7,0,1.2-0.1,1.7-0.4s0.9-0.6,1.2-1.1l1.2,0.9C61.9,23.9,60.5,24.6,58.7,24.6z M58.4,14.6c-0.8,0-1.4,0.3-1.9,0.8
			s-0.8,1.3-1,2.4h5.6v-0.1c-0.1-1-0.3-1.7-0.8-2.2C59.9,14.9,59.2,14.6,58.4,14.6z"/>
		<path class="st12" d="M70.6,15c-0.3,0-0.6-0.1-0.9-0.1c-1.2,0-2.1,0.5-2.5,1.6v7.9h-1.9V13.2h1.9l0,1.3c0.6-1,1.5-1.5,2.7-1.5
			c0.4,0,0.7,0,0.8,0.1V15z"/>
		<path class="st12" d="M76.6,23c0.7,0,1.3-0.2,1.8-0.6c0.5-0.4,0.8-0.9,0.8-1.5h1.8c0,0.6-0.3,1.2-0.7,1.8c-0.4,0.6-0.9,1-1.6,1.4
			c-0.7,0.3-1.4,0.5-2.1,0.5c-1.5,0-2.7-0.5-3.6-1.5s-1.3-2.4-1.3-4.2v-0.3c0-1.1,0.2-2,0.6-2.9c0.4-0.8,1-1.5,1.7-2
			c0.7-0.5,1.6-0.7,2.6-0.7c1.2,0,2.3,0.4,3.1,1.1c0.8,0.7,1.3,1.7,1.3,2.9h-1.8c-0.1-0.7-0.3-1.3-0.8-1.8c-0.5-0.5-1.1-0.7-1.8-0.7
			c-1,0-1.7,0.3-2.2,1c-0.5,0.7-0.8,1.7-0.8,3V19c0,1.3,0.3,2.3,0.8,3S75.7,23,76.6,23z"/>
		<path class="st12" d="M85.1,14.6c0.8-1,1.9-1.6,3.3-1.6c2.4,0,3.5,1.3,3.6,4v7.4h-1.9V17c0-0.8-0.2-1.4-0.6-1.8s-0.9-0.6-1.7-0.6
			c-0.6,0-1.2,0.2-1.6,0.5s-0.8,0.8-1.1,1.3v7.9h-1.9V8.6h1.9V14.6z"/>
		<path class="st12" d="M94.9,23.4c0-0.3,0.1-0.6,0.3-0.8c0.2-0.2,0.5-0.3,0.9-0.3c0.4,0,0.7,0.1,0.9,0.3c0.2,0.2,0.3,0.5,0.3,0.8
			c0,0.3-0.1,0.6-0.3,0.8c-0.2,0.2-0.5,0.3-0.9,0.3c-0.4,0-0.7-0.1-0.9-0.3C95,24,94.9,23.7,94.9,23.4z"/>
		<path class="st12" d="M105.8,15c-0.3,0-0.6-0.1-0.9-0.1c-1.2,0-2.1,0.5-2.5,1.6v7.9h-1.9V13.2h1.9l0,1.3c0.6-1,1.5-1.5,2.7-1.5
			c0.4,0,0.7,0,0.8,0.1V15z"/>
		<path class="st12" d="M114.4,23.3c-0.7,0.9-1.8,1.3-3.3,1.3c-1.2,0-2.1-0.3-2.7-1c-0.6-0.7-0.9-1.7-0.9-3.1v-7.2h1.9v7.2
			c0,1.7,0.7,2.5,2.1,2.5c1.5,0,2.4-0.5,2.9-1.6v-8.1h1.9v11.1h-1.8L114.4,23.3z"/>
	</g>
</g>
</svg>
